# Blender v2.74 (sub 0) OBJ File: 'ModelEtherealArrow.blend'
# www.blender.org
mtllib ModelEtherealArrowTri.mtl
o Cube_Cube.001
v -0.593945 0.552884 -0.677189
v -0.593945 0.552884 -0.656968
v -0.607341 0.594396 -0.683044
v -0.580549 0.594396 -0.683044
v -0.580549 0.594396 -0.663185
v -0.593945 0.635908 -0.637109
v -0.600432 0.600659 -0.664157
v -0.587932 0.600659 -0.664157
v -0.592607 0.579640 -0.703264
v -0.592607 0.606432 -0.683044
v -0.551095 0.593036 -0.677189
v -0.593968 0.593036 -0.805340
v -0.551095 0.593036 -0.656968
v -0.634120 0.593036 -0.637109
v -0.592607 0.606432 -0.663185
v -0.592607 0.579640 -0.663185
v -0.551095 0.593036 -0.637109
v -0.593968 0.593036 -0.765261
v -0.594182 0.588159 -0.664157
v -0.594182 0.637794 -0.116583
v -0.594182 0.600659 -0.289157
v -0.594182 0.588159 -0.289157
v -0.637566 0.594409 -0.116583
v -0.593945 0.635908 -0.656968
v -0.580549 0.594396 -0.703264
v -0.593945 0.635908 -0.677189
v -0.607341 0.594396 -0.703264
v -0.607341 0.594396 -0.663185
v -0.593945 0.552884 -0.637109
v -0.587932 0.588159 -0.664157
v -0.587932 0.600659 -0.164157
v -0.600432 0.600659 -0.164157
v -0.593968 0.593036 -0.785120
v -0.634120 0.593036 -0.656968
v -0.592607 0.579640 -0.683044
v -0.634120 0.593036 -0.677189
v -0.592607 0.606432 -0.703264
v -0.600432 0.588159 -0.664157
v -0.587932 0.594409 -0.289157
v -0.550797 0.594409 -0.116583
v -0.587932 0.588159 -0.164157
v -0.600432 0.588159 -0.164157
v -0.594182 0.551024 -0.116583
v -0.600432 0.594409 -0.289157
vt 0.312500 0.859375
vt 0.328125 0.937500
vt 0.296875 0.937500
vt 0.078125 0.906250
vt 0.250000 0.906250
vt 0.109375 0.953125
vt 0.062500 0.906250
vt 0.109375 0.859375
vt 0.343750 0.859375
vt 0.218750 0.875000
vt 0.296875 0.859375
vt 0.296875 0.890625
vt 0.000000 1.031250
vt 0.000000 0.609375
vt 0.031250 0.609375
vt 0.359375 0.968750
vt 0.109375 0.968750
vt 0.281250 0.937500
vt 0.281250 1.000000
vt 0.031250 1.031250
vt -0.000000 1.015625
vt 0.000000 1.000000
vt 0.015625 0.609375
vt 0.031250 1.015625
vt 0.031250 0.890625
vt 0.000000 0.906250
vt 0.000000 0.843750
vt 0.031250 1.000000
vt 0.031250 0.859375
vn -0.531900 0.000000 0.846800
vn -0.370300 -0.921600 -0.116000
vn 0.375200 0.918400 -0.125500
vn -0.370300 0.921600 -0.116000
vn 0.375200 -0.918400 -0.125500
vn 0.531900 0.000000 0.846800
vn 0.000000 0.531900 0.846800
vn 0.918300 0.375300 -0.125700
vn 0.370300 0.921600 0.116000
vn 0.000000 0.531900 -0.846800
vn 0.000000 -0.788300 -0.615300
vn 0.000000 -0.531900 0.846800
vn 0.921600 -0.370400 -0.116200
vn -0.918500 0.375100 -0.125300
vn -0.921700 -0.370200 -0.115800
vn -1.000000 0.000000 0.000000
vn 0.226100 0.972900 -0.048600
vn 0.226100 -0.972900 -0.048600
vn 0.000000 1.000000 0.000000
vn -0.788300 0.000000 0.615300
vn 0.000000 -0.788300 0.615300
vn 0.972900 0.226100 -0.048600
vn 0.000000 -1.000000 -0.000000
vn -0.972900 0.226100 -0.048600
vn 0.972900 -0.226100 -0.048600
vn -0.972900 -0.226100 -0.048600
vn -0.226100 -0.972900 -0.048600
vn -0.226100 0.972900 -0.048600
vn 0.788300 0.000000 0.615300
vn 1.000000 0.000000 0.000000
vn 0.000000 0.000000 1.000000
usemtl None
s off
f 17/1/1 15/2/1 16/3/1
f 14/4/2 18/5/2 16/6/2
f 15/6/3 17/7/3 18/5/3
f 18/5/4 14/4/4 15/8/4
f 9/8/5 12/5/5 11/7/5
f 16/8/5 18/5/5 17/7/5
f 14/1/6 16/2/6 15/3/6
f 2/1/7 4/2/7 3/3/7
f 5/8/8 18/5/8 6/7/8
f 34/4/9 35/8/9 33/5/9
f 25/1/10 27/9/10 26/2/10
f 43/10/11 42/11/11 41/12/11
f 11/7/3 12/5/3 37/6/3
f 37/8/4 12/5/4 36/4/4
f 10/6/3 13/7/3 33/5/3
f 33/5/4 34/4/4 10/8/4
f 35/8/5 33/5/5 13/7/5
f 36/4/2 12/5/2 9/6/2
f 13/1/1 10/2/1 35/3/1
f 9/3/1 11/1/1 37/2/1
f 6/2/12 28/1/12 5/9/12
f 29/1/7 5/2/7 28/3/7
f 24/2/12 3/1/12 4/9/12
f 1/1/7 25/2/7 27/3/7
f 36/1/6 9/2/6 37/3/6
f 34/1/6 35/2/6 10/3/6
f 29/4/13 18/5/13 5/6/13
f 28/6/14 6/7/14 18/5/14
f 18/5/15 29/4/15 28/8/15
f 26/7/14 12/5/14 27/6/14
f 27/8/15 12/5/15 1/4/15
f 3/6/14 24/7/14 33/5/14
f 33/5/15 2/4/15 3/8/15
f 2/4/13 33/5/13 4/6/13
f 4/8/8 33/5/8 24/7/8
f 25/8/8 12/5/8 26/7/8
f 1/4/13 12/5/13 25/6/13
f 32/13/16 7/14/16 38/15/16
f 40/16/17 39/17/17 31/18/17
f 40/16/18 41/19/18 39/17/18
f 7/15/19 32/20/19 31/21/19
f 40/10/20 31/11/20 41/12/20
f 20/10/21 32/11/21 31/12/21
f 20/16/22 31/19/22 21/17/22
f 42/22/23 19/23/23 41/24/23
f 20/16/24 21/17/24 32/19/24
f 43/16/25 22/17/25 41/18/25
f 43/16/26 42/19/26 22/17/26
f 23/16/27 44/17/27 42/18/27
f 23/16/28 32/19/28 44/17/28
f 23/10/29 42/11/29 32/12/29
f 8/15/30 31/24/30 41/21/30
f 31/25/31 32/26/31 42/27/31
f 42/28/16 32/13/16 38/15/16
f 8/14/19 7/15/19 31/21/19
f 19/23/23 42/22/23 38/14/23
f 19/23/23 30/15/23 41/24/23
f 30/14/30 8/15/30 41/21/30
f 41/29/31 31/25/31 42/27/31
