# Blender v2.76 (sub 0) OBJ File: 'ModelCrimsonSword.blend'
# www.blender.org
mtllib ModelCrimsonSwordTri.mtl
o cultistsword.tcn
v 0.279443 4.923472 2.278156
v 0.778211 4.923472 2.278156
v 0.778211 4.923472 1.779388
v 0.279443 4.923472 1.779388
v 0.030059 7.417313 2.502924
v 0.030059 6.918545 2.502924
v 1.027595 6.918545 2.502924
v 1.027595 7.417313 2.502924
v 1.027595 7.417313 1.505388
v 1.027595 6.918545 1.505388
v 0.030059 6.918545 1.505388
v 0.030059 7.417313 1.505388
v 0.030059 4.797594 2.543216
v 0.030059 4.515554 2.543216
v 1.027595 4.515554 2.543216
v 1.027595 4.797594 2.543216
v 1.027595 4.797594 1.545679
v 1.027595 4.515554 1.545679
v 0.030059 4.515554 1.545679
v 0.030059 4.797594 1.545679
v -0.219325 7.417313 2.028773
v 0.279443 7.417313 2.278157
v 0.279443 13.901299 2.278158
v 0.279443 13.901299 1.779390
v 0.279443 7.417313 1.779389
v -0.219325 7.417313 2.028773
v -0.219325 13.901299 2.028774
v 2.025002 7.417313 2.275825
v 2.025002 6.918545 2.278157
v 2.025002 6.918545 1.779389
v 2.025002 7.417313 1.781867
v -0.967477 6.918545 2.278157
v -0.967005 7.417313 2.274760
v -0.967005 7.417313 1.783289
v -0.967477 6.918545 1.779389
v 2.525445 7.781543 2.278157
v 2.093946 8.031699 2.278157
v 1.593633 7.168702 2.278157
v 1.593633 7.168702 1.779389
v 2.093946 8.031699 1.779389
v 2.525445 7.781543 1.779389
v -0.535595 7.168039 2.278157
v -1.040263 8.028523 2.271598
v -1.460787 7.785590 2.271598
v -0.967477 6.918545 2.278157
v -0.967477 6.918545 1.779389
v -1.460787 7.785590 1.785947
v -1.040263 8.028523 1.785947
v -0.535595 7.168040 1.779389
v 0.778211 13.901299 2.278158
v 0.778211 7.417313 2.278157
v 1.276979 7.417313 2.028773
v 1.276979 13.901299 2.028774
v 1.276979 7.417313 2.028773
v 0.778211 7.417313 1.779389
v 0.778211 13.901299 1.779390
v 0.279443 7.916081 2.278157
v 0.279443 7.417313 2.278157
v 0.778211 7.417313 2.278157
v 0.778211 7.916081 2.278157
v 0.778211 7.916081 1.779389
v 0.778211 7.417313 1.779389
v 0.279443 7.417313 1.779389
v 0.279443 7.916081 1.779389
v -0.240450 7.230679 2.251456
v 0.479631 15.459623 2.278158
v 0.479631 15.459623 1.779390
v -0.019138 15.459623 2.028774
v 0.549654 15.459623 2.278158
v 1.048422 15.459623 2.028774
v 0.549654 15.459623 1.779390
v 0.549654 15.459623 2.028774
v 0.479631 15.459623 2.028774
v 0.016579 15.641558 2.028774
v 0.514247 15.638721 2.028774
v 1.013047 15.639567 2.028774
v 0.514279 15.723129 1.779390
v 0.514279 15.723129 2.028774
v 0.514279 15.723129 2.278158
v 0.514279 16.773403 2.028774
v 0.778211 10.659306 2.278157
v 0.778211 10.659306 1.779389
v 0.778211 13.901299 2.028774
v 0.778211 7.417313 2.028773
v 0.778211 10.659306 2.028773
v 0.279443 7.417313 2.028773
v 0.279443 10.659306 1.779389
v 0.279443 10.659306 2.278157
v 0.279443 13.901299 2.028774
v 0.279443 10.659306 2.028773
v 0.279443 7.916081 2.050735
v 0.778211 7.916081 2.050735
v 0.758902 4.336276 1.814373
v 0.298752 4.336276 1.814373
v 0.298752 4.336276 2.274522
v 0.758902 4.336276 2.274522
v 0.279443 15.779722 2.050735
v 0.778211 15.779722 2.050735
v 1.027595 4.797594 2.044448
v 0.528827 4.797594 1.545679
v 0.154751 4.860533 1.662534
v 0.902903 4.860533 2.410686
v 0.778211 6.931858 2.278157
v 0.778211 6.931859 1.779389
v 0.279443 6.931859 1.779389
v 0.279443 6.931858 2.278157
v 0.778211 7.916081 2.014325
v 0.279443 7.916081 2.014325
v 0.778211 15.779722 2.014325
v 0.279443 15.779722 2.014325
vt 0.726199 0.908304
vt 0.638520 0.908304
vt 0.638520 0.952144
vt 0.458255 0.070940
vt 0.458255 0.196466
vt 0.414472 0.196452
vt 0.460009 0.199440
vt 0.416226 0.199451
vt 0.416226 0.136682
vt 0.406596 0.156595
vt 0.468690 0.156595
vt 0.438375 0.186942
vt 0.499906 0.062629
vt 0.500003 0.187436
vt 0.469056 0.156074
vt 0.451483 0.133338
vt 0.422997 0.147825
vt 0.421742 0.118212
vt 0.459747 0.076090
vt 0.459747 0.201669
vt 0.416235 0.201669
vt 0.542206 0.710465
vt 0.542206 0.302356
vt 0.573689 0.302356
vt 0.498713 0.374627
vt 0.375272 0.374627
vt 0.375272 0.312911
vt 0.499720 0.375596
vt 0.376263 0.375610
vt 0.376256 0.313881
vt 0.377369 0.374321
vt 0.377369 0.313217
vt 0.499576 0.313217
vt 0.436397 0.311224
vt 0.498970 0.311224
vt 0.498970 0.374013
vt 0.640172 0.912304
vt 0.640172 0.960653
vt 0.736825 0.982441
vt 0.408052 0.094604
vt 0.467552 0.094740
vt 0.467552 0.154447
vt 0.499929 0.375042
vt 0.376451 0.375042
vt 0.376451 0.313304
vt 0.377191 0.373693
vt 0.377191 0.314617
vt 0.498539 0.313819
vt 0.376045 0.374251
vt 0.376045 0.314059
vt 0.499685 0.313246
vt 0.468234 0.155975
vt 0.406849 0.155920
vt 0.407042 0.094123
vt 0.497778 0.374500
vt 0.375850 0.373698
vt 0.375850 0.314338
vt 0.498142 0.373503
vt 0.376293 0.372702
vt 0.376293 0.313381
vt 0.052599 0.891726
vt 0.019687 0.431098
vt 0.050138 0.199323
vt 0.561149 0.627927
vt 0.561149 0.823838
vt 0.529666 0.823839
vt 0.561645 0.569645
vt 0.572300 0.538250
vt 0.594865 0.569645
vt 0.574015 0.659227
vt 0.542532 0.659227
vt 0.542532 0.253647
vt 0.001727 0.528994
vt 0.058995 0.528994
vt 0.058995 0.586263
vt 0.058995 0.700799
vt 0.001727 0.700799
vt 0.001727 0.643531
vt 0.592937 0.779329
vt 0.592937 0.841114
vt 0.531152 0.841114
vt 0.055699 0.650471
vt 0.058800 0.849516
vt 0.014453 0.845696
vt 0.032249 0.426129
vt 0.047428 0.437155
vt 0.050528 0.566718
vt 0.000000 0.000000
vt 0.539870 0.631506
vt 0.543746 0.530232
vt 0.551201 0.531007
vt 0.041550 0.315872
vt 0.035349 0.433533
vt 0.015644 0.424599
vt 0.014057 0.168726
vt 0.045327 0.502637
vt 0.017748 0.911112
vt 0.021091 0.507317
vt 0.046187 0.192554
vt 0.041537 0.897149
vt 0.020184 0.434591
vt 0.040002 0.425681
vt 0.049303 0.555742
vt 0.044406 0.748121
vt 0.011118 0.752282
vt 0.021414 0.690622
vt 0.044561 0.373443
vt 0.044561 0.435419
vt 0.021572 0.431043
vt 0.550571 0.589256
vt 0.584128 0.620651
vt 0.550571 0.652045
vt 0.719353 0.584871
vt 0.688732 0.577575
vt 0.749975 0.457077
vt 0.050426 0.477102
vt 0.050426 0.540774
vt 0.027687 0.536440
vt 0.523082 0.892896
vt 0.523082 0.963053
vt 0.495118 0.948983
vt 0.045131 0.539500
vt 0.011845 0.543800
vt 0.022394 0.480284
vt 0.031626 0.750012
vt 0.060475 0.766308
vt 0.031626 0.822800
vt 0.551763 0.381403
vt 0.583246 0.381403
vt 0.583246 0.786983
vt 0.580442 0.736602
vt 0.572986 0.738927
vt 0.572986 0.351949
vt 0.568587 0.639541
vt 0.537104 0.639541
vt 0.537104 0.233961
vt 0.592771 0.254287
vt 0.592771 0.662396
vt 0.561288 0.662396
vt 0.549365 0.662396
vt 0.549366 0.254287
vt 0.580849 0.254287
vt 0.556046 0.674798
vt 0.556046 0.266689
vt 0.587529 0.266689
vt 0.467805 0.155674
vt 0.407784 0.155674
vt 0.407784 0.094770
vt 0.375475 0.187294
vt 0.407039 0.156686
vt 0.468445 0.156378
vt 0.375521 0.063249
vt 0.406299 0.094149
vt 0.406299 0.155850
vt 0.499747 0.063123
vt 0.468363 0.093731
vt 0.406738 0.093423
vt 0.623035 0.002025
vt 0.623456 0.998961
vt 0.503354 0.998741
vt 0.375460 0.125373
vt 0.406424 0.155687
vt 0.391584 0.171180
vt 0.469168 0.156100
vt 0.499809 0.062618
vt 0.499643 0.187653
vt 0.253002 0.501759
vt 0.502067 0.501759
vt 0.502067 0.563612
vt 0.499500 0.063051
vt 0.467797 0.093305
vt 0.375671 0.063245
vt 0.253378 0.564177
vt 0.500762 0.564177
vt 0.500762 0.625613
vt 0.253005 0.439064
vt 0.500646 0.439064
vt 0.500646 0.500564
vt 0.498739 0.439485
vt 0.250676 0.439485
vt 0.250676 0.377880
vt 0.051544 0.740425
vt 0.003383 0.713441
vt 0.051544 0.619104
vt 0.031589 0.822667
vt 0.002746 0.766172
vt 0.008025 0.509266
vt 0.056003 0.603213
vt 0.008025 0.630314
vt 0.641081 0.893731
vt 0.641081 0.985636
vt 0.732985 0.985636
vt 0.638335 0.959592
vt 0.731871 0.959592
vt 0.731871 0.912824
vt 0.632155 0.883074
vt 0.632155 0.988970
vt 0.738051 0.988970
vt 0.710234 0.983649
vt 0.710234 0.887065
vt 0.663101 0.887021
vt 0.643108 0.897589
vt 0.643150 0.943171
vt 0.737649 0.943171
vt 0.640923 0.892041
vt 0.660743 0.980003
vt 0.704724 0.980003
vt 0.736595 0.944901
vt 0.736595 0.896246
vt 0.636856 0.896246
vt 0.738995 0.911140
vt 0.638027 0.883403
vt 0.638027 0.984384
vt 0.636977 0.956179
vt 0.737428 0.956179
vt 0.737428 0.907742
vt 0.737285 0.982438
vt 0.737285 0.889208
vt 0.644067 0.914816
vt 0.726199 0.952144
vt 0.414472 0.070926
vt 0.416226 0.073913
vt 0.460009 0.073902
vt 0.499981 0.186942
vt 0.392171 0.170548
vt 0.375219 0.187136
vt 0.469210 0.094343
vt 0.451175 0.120058
vt 0.451790 0.146619
vt 0.416235 0.076090
vt 0.573689 0.710465
vt 0.498713 0.312911
vt 0.499721 0.313881
vt 0.499584 0.374307
vt 0.436397 0.374013
vt 0.736825 0.885743
vt 0.408052 0.154310
vt 0.499929 0.313304
vt 0.498539 0.374491
vt 0.499685 0.375064
vt 0.468427 0.094373
vt 0.497778 0.313537
vt 0.498142 0.312580
vt 0.012305 0.194402
vt 0.017225 0.889265
vt 0.529666 0.627927
vt 0.592633 0.627927
vt 0.592633 0.823839
vt 0.594865 0.506855
vt 0.561645 0.506855
vt 0.574015 0.253647
vt 0.001727 0.586263
vt 0.058995 0.643531
vt 0.531152 0.779329
vt 0.016914 0.647930
vt 0.022948 0.568092
vt 0.549651 0.631506
vt 0.533190 0.631506
vt 0.533965 0.529457
vt 0.012543 0.313140
vt 0.045327 0.910742
vt 0.045327 0.168356
vt 0.016441 0.896819
vt 0.017991 0.189124
vt 0.020184 0.552250
vt 0.044406 0.686265
vt 0.011275 0.369255
vt 0.584128 0.652045
vt 0.584128 0.589256
vt 0.749975 0.592167
vt 0.017138 0.472822
vt 0.466715 0.935084
vt 0.045131 0.475936
vt 0.551763 0.786983
vt 0.578891 0.357375
vt 0.568587 0.233961
vt 0.561288 0.254287
vt 0.580849 0.662396
vt 0.587529 0.674798
vt 0.467805 0.094770
vt 0.499701 0.187294
vt 0.375715 0.187331
vt 0.375507 0.063123
vt 0.502666 0.002010
vt 0.375654 0.187214
vt 0.375654 0.063144
vt 0.406732 0.095701
vt 0.499449 0.101667
vt 0.469361 0.094407
vt 0.253002 0.563612
vt 0.407306 0.093069
vt 0.442092 0.093263
vt 0.253378 0.625613
vt 0.253005 0.500564
vt 0.498739 0.377880
vt 0.732985 0.893731
vt 0.638335 0.912824
vt 0.738051 0.883074
vt 0.663101 0.983649
vt 0.737649 0.897589
vt 0.728885 0.892041
vt 0.636856 0.944901
vt 0.738995 0.961630
vt 0.636977 0.907742
vt 0.644067 0.961432
vt 0.045985 0.506864
vt 0.015825 0.850672
vt 0.020747 0.211627
vt 0.041064 0.216871
vt 0.038603 0.846072
vn 0.000000 0.000000 -1.000000
vn 0.000000 0.000000 1.000000
vn 0.000000 0.880400 -0.474200
vn 0.555000 -0.831800 0.000000
vn 1.000000 0.000000 0.000000
vn -1.000000 0.000000 0.000000
vn 0.865100 -0.501600 0.000000
vn 0.000000 1.000000 0.000000
vn 0.501500 0.865100 0.000000
vn -0.865100 0.501500 0.000000
vn -0.003300 0.005700 1.000000
vn -0.003300 0.005700 -1.000000
vn -0.500200 0.865900 0.000000
vn -0.869200 -0.494500 0.000000
vn 0.862600 0.505900 0.000000
vn 0.447200 0.000000 -0.894400
vn 0.991800 -0.127400 0.000000
vn 0.990500 -0.130200 -0.044000
vn -0.446500 0.057400 0.893000
vn -0.446500 0.057400 -0.893000
vn -0.989400 -0.145100 0.000000
vn 0.446300 0.065500 -0.892500
vn -0.447200 -0.000000 0.894400
vn 0.447200 -0.000000 0.894400
vn 0.446300 0.065500 0.892500
vn -0.455000 0.059800 0.888500
vn -0.445500 0.087500 -0.891000
vn -0.991100 -0.133100 0.000000
vn 0.445500 0.087600 0.891000
vn 0.005400 0.947200 -0.320600
vn 0.454500 0.061000 -0.888600
vn 0.465000 0.204500 -0.861400
vn 0.000000 -1.000000 0.000000
vn 0.000000 -0.831800 0.555000
vn -0.555000 -0.831800 -0.000000
vn 0.000000 -0.831800 -0.555000
vn 0.450600 0.892700 0.000000
vn -0.450600 0.892700 -0.000000
vn 0.000000 0.903300 0.429000
vn -0.465100 0.204500 0.861300
vn -0.465100 0.204500 -0.861300
vn 0.465000 0.204500 0.861400
vn -0.223100 0.006800 0.974800
vn -0.268500 0.007800 -0.963300
vn 0.222000 0.004600 0.975000
vn 0.267100 0.004800 -0.963700
vn 0.981800 -0.189800 0.000000
vn 0.990500 -0.130200 0.044000
vn -0.445500 0.087500 0.891000
vn -0.455000 0.059800 -0.888500
vn 0.454500 0.061000 0.888600
vn 0.005400 0.947200 0.320600
vn 0.445500 0.087600 -0.891000
vn -0.219800 -0.000000 0.975500
vn -0.264900 0.000000 -0.964300
vn 0.219800 -0.000000 0.975500
vn 0.264900 0.000000 -0.964300
vn -0.447200 0.000000 -0.894400
usemtl Material.001
s off
f 10/1/1 11/2/1 12/3/1
f 14/4/2 15/5/2 16/6/2
f 19/7/1 20/8/1 100/9/1
f 4/10/3 3/11/3 100/12/3
f 18/13/4 15/14/4 96/15/4
f 99/16/5 15/17/5 18/18/5
f 19/19/6 14/20/6 13/21/6
f 88/22/5 22/23/5 86/24/5
f 30/25/7 41/26/7 36/27/7
f 39/28/1 40/29/1 41/30/1
f 36/31/2 37/32/2 38/33/2
f 31/34/6 30/35/6 29/36/6
f 34/37/8 33/38/8 5/39/8
f 41/40/9 40/41/9 37/42/9
f 38/43/10 37/44/10 40/45/10
f 43/46/11 44/47/11 45/48/11
f 47/49/12 48/50/12 49/51/12
f 48/52/13 47/53/13 44/54/13
f 45/55/14 44/56/14 47/57/14
f 49/58/15 48/59/15 43/60/15
f 54/61/16 82/62/16 53/63/16
f 89/64/17 73/65/17 66/66/17
f 77/67/18 75/68/18 67/69/18
f 84/70/6 51/71/6 81/72/6
f 58/73/2 59/74/2 60/75/2
f 62/76/1 63/77/1 64/78/1
f 60/79/8 61/80/8 64/81/8
f 23/82/19 66/83/19 68/84/19
f 24/85/20 27/86/20 68/87/20
f 27/88/2 26/88/2 21/88/2
f 83/89/21 72/90/21 71/91/21
f 56/92/22 71/93/22 70/94/22
f 21/95/23 88/96/23 27/97/23
f 81/98/24 52/99/24 53/100/24
f 53/88/2 52/88/2 54/88/2
f 50/101/25 53/102/25 70/103/25
f 66/104/26 79/105/26 74/106/26
f 67/107/27 68/108/27 74/109/27
f 69/110/28 78/111/28 71/112/28
f 78/113/6 79/114/6 80/115/6
f 69/116/29 70/117/29 76/118/29
f 74/119/30 79/120/30 75/121/30
f 71/122/31 77/123/31 76/124/31
f 76/125/32 77/126/32 80/127/32
f 85/128/6 81/129/6 50/130/6
f 82/131/6 85/132/6 83/133/6
f 55/134/6 84/135/6 85/136/6
f 90/137/5 86/138/5 25/139/5
f 89/140/5 90/141/5 87/142/5
f 23/143/5 88/144/5 90/145/5
f 94/146/33 93/147/33 96/148/33
f 14/149/34 95/150/34 96/151/34
f 19/152/35 94/153/35 95/154/35
f 18/155/36 93/156/36 94/157/36
f 92/158/2 98/159/2 97/160/2
f 99/161/37 2/162/37 102/163/37
f 1/164/38 101/165/38 13/166/38
f 3/167/5 104/168/5 103/169/5
f 16/170/39 102/171/39 13/172/39
f 2/173/2 103/174/2 106/175/2
f 4/176/1 105/177/1 104/178/1
f 1/179/6 106/180/6 105/181/6
f 108/158/1 110/159/1 109/160/1
f 74/182/40 79/183/40 80/184/40
f 80/185/41 77/186/41 74/125/41
f 80/187/42 79/188/42 76/189/42
f 12/190/8 5/191/8 8/192/8
f 6/193/2 7/194/2 8/195/2
f 7/196/33 6/197/33 11/198/33
f 5/199/43 33/200/43 32/201/43
f 35/202/44 34/203/44 12/204/44
f 6/205/33 32/206/33 35/207/33
f 29/208/45 28/209/45 8/210/45
f 31/211/8 9/212/8 8/213/8
f 9/214/46 31/215/46 30/216/46
f 7/217/33 10/218/33 30/219/33
f 9/220/1 10/1/1 12/3/1
f 13/221/2 14/4/2 16/6/2
f 100/9/1 17/222/1 18/223/1
f 18/223/1 19/7/1 100/9/1
f 17/224/3 100/12/3 3/11/3
f 101/225/3 4/10/3 100/12/3
f 100/12/3 20/226/3 101/225/3
f 93/227/4 18/13/4 96/15/4
f 18/18/5 17/228/5 99/16/5
f 99/16/5 16/229/5 15/17/5
f 20/230/6 19/19/6 13/21/6
f 90/231/5 88/22/5 86/24/5
f 29/232/7 30/25/7 36/27/7
f 30/233/1 39/28/1 41/30/1
f 29/234/2 36/31/2 38/33/2
f 28/235/6 31/34/6 29/36/6
f 12/236/8 34/37/8 5/39/8
f 36/237/9 41/40/9 37/42/9
f 39/238/10 38/43/10 40/45/10
f 42/239/11 43/46/11 45/48/11
f 46/240/12 47/49/12 49/51/12
f 43/241/13 48/52/13 44/54/13
f 46/242/14 45/55/14 47/57/14
f 42/243/15 49/58/15 43/60/15
f 56/244/16 53/63/16 82/62/16
f 54/61/16 55/245/16 82/62/16
f 66/66/17 23/246/17 89/64/17
f 89/64/17 24/247/17 67/248/17
f 67/248/17 73/65/17 89/64/17
f 66/249/47 67/69/47 75/68/47
f 75/68/48 79/250/48 66/249/48
f 85/251/6 84/70/6 81/72/6
f 57/252/2 58/73/2 60/75/2
f 61/253/1 62/76/1 64/78/1
f 57/254/8 60/79/8 64/81/8
f 27/255/19 23/82/19 68/84/19
f 67/256/20 24/85/20 68/87/20
f 71/91/21 56/257/21 83/89/21
f 83/89/21 50/258/21 69/259/21
f 69/259/21 72/90/21 83/89/21
f 53/260/22 56/92/22 70/94/22
f 23/261/23 27/97/23 88/96/23
f 21/95/23 22/262/23 88/96/23
f 53/100/24 50/263/24 81/98/24
f 81/98/24 51/264/24 52/99/24
f 69/265/25 50/101/25 70/103/25
f 68/266/49 66/104/49 74/106/49
f 77/267/50 67/107/50 74/109/50
f 77/268/28 71/112/28 78/111/28
f 69/110/28 79/269/28 78/111/28
f 77/270/6 78/113/6 80/115/6
f 79/271/51 69/116/51 76/118/51
f 77/272/52 74/119/52 75/121/52
f 70/273/53 71/122/53 76/124/53
f 83/274/6 85/128/6 50/130/6
f 56/275/6 82/131/6 83/133/6
f 82/276/6 55/134/6 85/136/6
f 87/277/5 90/137/5 25/139/5
f 24/278/5 89/140/5 87/142/5
f 89/279/5 23/143/5 90/145/5
f 95/280/33 94/146/33 96/148/33
f 15/281/34 14/149/34 96/151/34
f 14/282/35 19/152/35 95/154/35
f 19/283/36 18/155/36 94/157/36
f 91/284/2 92/158/2 97/160/2
f 102/163/37 16/285/37 99/161/37
f 99/161/37 17/286/37 3/287/37
f 3/287/37 2/162/37 99/161/37
f 20/288/38 13/166/38 101/165/38
f 1/164/38 4/289/38 101/165/38
f 2/290/5 3/167/5 103/169/5
f 1/291/39 13/172/39 102/171/39
f 102/171/39 2/292/39 1/291/39
f 1/293/2 2/173/2 106/175/2
f 3/294/1 4/176/1 104/178/1
f 4/295/6 1/179/6 105/181/6
f 107/284/1 108/158/1 109/160/1
f 9/296/8 12/190/8 8/192/8
f 5/297/2 6/193/2 8/195/2
f 10/298/33 7/196/33 11/198/33
f 6/299/54 5/199/54 32/201/54
f 11/300/55 35/202/55 12/204/55
f 11/301/33 6/205/33 35/207/33
f 7/302/56 29/208/56 8/210/56
f 28/303/8 31/211/8 8/213/8
f 10/304/57 9/214/57 30/216/57
f 29/305/33 7/217/33 30/219/33
usemtl None
f 87/306/58 26/307/58 27/308/58
f 27/308/58 24/309/58 87/306/58
f 87/306/58 25/310/58 26/307/58
